<?xml version="1.0" standalone="no"?>
<!DOCTYPE svg PUBLIC "-//W3C//DTD SVG 20010904//EN"
 "http://www.w3.org/TR/2001/REC-SVG-20010904/DTD/svg10.dtd">
<svg version="1.0" xmlns="http://www.w3.org/2000/svg"
 width="300.000000pt" height="225.000000pt" viewBox="0 0 300.000000 225.000000"
 preserveAspectRatio="xMidYMid meet">
<metadata>
Created by potrace 1.10, written by Peter Selinger 2001-2011
</metadata>
<g transform="translate(0.000000,225.000000) scale(0.100000,-0.100000)"
fill="#000000" stroke="none">
<path d="M1105 1232 c-38 -27 -38 -40 1 -102 21 -34 51 -71 68 -83 33 -24 72
-31 81 -16 4 5 -1 9 -10 9 -12 0 -35 36 -35 56 0 11 24 2 35 -12 6 -9 20 -14
31 -12 15 3 11 8 -22 25 -48 25 -63 42 -73 80 -5 18 -15 29 -29 31 -12 2 -22
10 -22 18 0 15 -9 18 -25 6z"/>
</g>
</svg>
